<svg id="图层_1" data-name="图层 1" xmlns="http://www.w3.org/2000/svg" viewBox="0 0 508.33 88"><defs><style>.cls-1{fill:#b5b5b6;}.cls-2{fill:none;stroke:#bacaff;stroke-miterlimit:10;stroke-width:10px;}.cls-3{fill:#bacaff;}.cls-4{fill:#fff;}.cls-5{fill:#ff96ab;}.cls-6{fill:#6b6b6b;}.cls-7{fill:#e2e2e2;}</style></defs><title>sprite_logo</title><g id="_编组_" data-name=" 编组 "><path id="_路径_" data-name=" 路径 " class="cls-1" d="M337.5,10.55h1.2V26.23h-1V12.49h-.08l-3.66,8.75-3.58-8.75-.08.06V26.23h-1.09V10.55h1.12l3.62,8.61Z"/><path id="_路径_2" data-name=" 路径 2" class="cls-1" d="M348.6,14.78h1v5.54a41.85,41.85,0,0,0,.44,6.09h-1l-.44-3.35h.12a4.52,4.52,0,0,1-4.19,3.41c-1.75-.06-2.65-1.26-2.71-3.57V14.6h.88v7.79c.06,2.3.67,3.43,1.87,3.37,2.52-.39,3.84-2.52,3.94-6.38v-4.6Z"/><path id="_路径_3" data-name=" 路径 3" class="cls-1" d="M359.16,16.55a5.34,5.34,0,0,0-3.19-1.2,2.29,2.29,0,0,0-2.29,2.1c0,1,.87,1.75,2.58,2.32,2.52.81,3.76,2,3.7,3.7-.12,1.89-1.3,2.87-3.52,2.93a7.36,7.36,0,0,1-4.39-1.73l.61-.87a6.34,6.34,0,0,0,3.88,1.89c1.56-.12,2.36-.83,2.4-2.15s-.78-2.13-2.78-2.82c-2.4-.75-3.58-1.87-3.52-3.37.2-1.8,1.34-2.8,3.47-2.93a6,6,0,0,1,3.52,1.2Z"/><path id="_复合路径_" data-name=" 复合路径 " class="cls-1" d="M370.4,25.55a13.56,13.56,0,0,1-4.21.87c-2.93-.06-4.49-2-4.65-5.87.18-4,1.75-6,4.75-6.12q4.22.27,4.31,6.2h-8c.12,3.39,1.34,5.08,3.7,5.08a7.17,7.17,0,0,0,3.7-1.2Zm-.87-5.8q-.26-4.2-3.37-4.53c-2.24.24-3.45,1.73-3.62,4.49Z"/><path id="_路径_4" data-name=" 路径 4" class="cls-1" d="M380,14.78h1v5.54a41.85,41.85,0,0,0,.44,6.09h-1L380,23.06h-.06a4.52,4.52,0,0,1-4.19,3.41c-1.75-.06-2.65-1.26-2.71-3.57V14.6h1.06v7.79c.05,2.3.66,3.43,1.86,3.37q3.78-.59,3.95-6.38v-4.6Z"/><path id="_路径_5" data-name=" 路径 5" class="cls-1" d="M385,18.12a16,16,0,0,0-.35-3.7h1l.25,1.45a3.48,3.48,0,0,1,2.74-1.45,1.83,1.83,0,0,1,1.8,1.37,3,3,0,0,1,2.39-1.37,2.15,2.15,0,0,1,2.23,2.39v9.41H394V16.84c0-1.08-.45-1.63-1.38-1.63a2.64,2.64,0,0,0-2.15,1.46v9.57h-1.06v-9c.06-1.38-.34-2.07-1.14-2.07a2.65,2.65,0,0,0-2.21,1.73v9.47H385V18.12Z"/></g><g id="_编组_2" data-name=" 编组 2"><path id="_复合路径_2" data-name=" 复合路径 2" class="cls-1" d="M319.28,52.34a4.43,4.43,0,0,0,2.88,1.3c2-.12,3-1.36,3.11-3.7V48.48a4.92,4.92,0,0,1-3.37,1.46c-2.54-.18-3.94-1.89-4.19-5.16.12-3.68,1.61-5.57,4.45-5.69a5,5,0,0,1,3.29,1.3l.26-1.3h1.06a22.75,22.75,0,0,0-.45,5.34V50.1c-.12,2.7-1.57,4.15-4.35,4.39a5.21,5.21,0,0,1-3.48-1.56Zm6-10.77a3.67,3.67,0,0,0-3.12-1.74c-2,.12-3.07,1.63-3.19,4.57.06,2.76,1.08,4.27,3.11,4.57a4.1,4.1,0,0,0,3.19-1.81Z"/><path id="_复合路径_3" data-name=" 复合路径 3" class="cls-1" d="M339.16,50.89H338l-1.36-4.76h-5.35l-1.44,4.76h-1.11l5.19-16.34Zm-7.76-5.64h5l-2.5-8Z"/><path id="_路径_6" data-name=" 路径 6" class="cls-1" d="M344.69,35.39h-3.35v-.84h4.4V50.89h-1.05Z"/><path id="_路径_7" data-name=" 路径 7" class="cls-1" d="M352.62,35.39h-3.35v-.84h4.4V50.89h-1.05Z"/><path id="_复合路径_4" data-name=" 复合路径 4" class="cls-1" d="M365.24,50.17A13.56,13.56,0,0,1,361,51c-2.93-.06-4.49-2-4.65-5.87.18-4,1.75-6,4.75-6.12q4.22.27,4.31,6.2h-8c.12,3.39,1.34,5.08,3.7,5.08a7.17,7.17,0,0,0,3.7-1.2Zm-.87-5.8q-.27-4.13-3.37-4.49c-2.24.24-3.45,1.73-3.62,4.49Z"/><path id="_路径_8" data-name=" 路径 8" class="cls-1" d="M369.51,50.89h-1V42.7l-.42-3.62H369l.42,3.19Q371,39,373.3,39c1.58.06,2.39,1.21,2.44,3.44H375c.06-1.79-.46-2.71-1.58-2.71-2.43.76-3.73,2.86-3.83,6.35v4.81Z"/><path id="_路径_9" data-name=" 路径 9" class="cls-1" d="M387.22,39.26l-4.31,11a3.25,3.25,0,0,0-.18.43c-1,2.52-2.21,3.76-3.52,3.7a3,3,0,0,1-2.68-2.24l.87-.43c.44,1.23,1,1.83,1.76,1.83s1.5-.73,2.07-2.15l.95-1.89-3.75-10.25h1.13l3.17,9,3.27-9Z"/></g><g id="_编组_3" data-name=" 编组 3"><path id="_复合路径_5" data-name=" 复合路径 5" class="cls-1" d="M297.43,74.66a13.56,13.56,0,0,1-4.21.87c-2.93-.06-4.49-2-4.65-5.87.18-4,1.75-6,4.75-6.12q4.22.27,4.31,6.2h-8c.12,3.39,1.34,5.08,3.7,5.08a7.17,7.17,0,0,0,3.7-1.2Zm-.87-5.8q-.27-4.13-3.37-4.49c-2.22.24-3.45,1.73-3.6,4.49Z"/><path id="_路径_10" data-name=" 路径 10" class="cls-1" d="M304.66,69.1l4.5,6.27h-1.39l-3.7-5.59-3.7,5.59H299l4.56-6.28-3.71-5.34H301l3,4.56L307,63.75h1.19Z"/><path id="_路径_11" data-name=" 路径 11" class="cls-1" d="M310.85,59h1.08v7.22H312a4.44,4.44,0,0,1,3.87-2.76c1.77.24,2.69,1.36,2.75,3.38v8.55h-.88V68.09c-.07-2.46-.7-3.7-2-3.7-2.24.35-3.5,2.07-3.68,5.16v6h-1.2V59Z"/><path id="_复合路径_6" data-name=" 复合路径 6" class="cls-1" d="M325.31,64.63H322v-.88h4.4V75.37h-1.06Zm1.65-4.3a1.14,1.14,0,0,1-1.06,1.22h-.06a1.17,1.17,0,0,1-1.2-1.14s0,0,0-.06a1.14,1.14,0,0,1,1.16-1.12h0A1.1,1.1,0,0,1,327,60.3s0,0,0,0Z"/><path id="_复合路径_7" data-name=" 复合路径 7" class="cls-1" d="M330.25,75.39V59.55h3.91c2.52.12,3.85,1.42,4,3.88A3.76,3.76,0,0,1,335.58,67a4.26,4.26,0,0,1,3.27,4.22c-.18,2.7-1.5,4.12-4,4.22h-4.6Zm2.7-8.65q4.07-.09,4.21-3.39.09-3-3.39-3H331.3v6.34Zm1.74,7.93a3.21,3.21,0,0,0,3.14-3.28v0a3.71,3.71,0,0,0-3.68-3.74H331.3v7h3.38Z"/><path id="_复合路径_8" data-name=" 复合路径 8" class="cls-1" d="M345,64.63H341.7v-.88h4.4V75.37H345V64.63Zm1.67-4.3a1.14,1.14,0,0,1-1.06,1.22h-.06a1.17,1.17,0,0,1-1.2-1.14s0,0,0-.06a1.14,1.14,0,0,1,1.16-1.12h0a1.12,1.12,0,0,1,1.13,1.1Z"/><path id="_路径_12" data-name=" 路径 12" class="cls-1" d="M356.87,64.63h-4.25v7.92c.06,1.5.67,2.24,1.87,2.24a3.21,3.21,0,0,0,2.85-2.07l1,.18a4.22,4.22,0,0,1-3.82,2.58c-2,.06-2.93-1.12-2.93-3.52V64.63h-2.67v-.88h2.64V59.87h1.06v3.88h4.23v.88Z"/><path id="_复合路径_9" data-name=" 复合路径 9" class="cls-1" d="M363.89,64.63h-3.34v-.88H365V75.37h-1.06Zm1.59-4.3a1.14,1.14,0,0,1-1.06,1.22h-.06a1.17,1.17,0,0,1-1.2-1.14s0,0,0-.06a1.14,1.14,0,0,1,1.16-1.12h0A1.12,1.12,0,0,1,365.48,60.33Z"/><path id="_复合路径_10" data-name=" 复合路径 10" class="cls-1" d="M368.16,69.55c.06-3.84,1.56-5.87,4.49-6q4.4.35,4.49,6c-.06,3.84-1.56,5.83-4.49,5.95C369.69,75.39,368.22,73.4,368.16,69.55Zm7.92,0c-.06-3.39-1.2-5.12-3.45-5.16s-3.39,1.79-3.47,5.16,1.2,5.2,3.45,5.26,3.4-1.8,3.46-5.26Z"/><path id="_路径_13" data-name=" 路径 13" class="cls-1" d="M380.8,75.55h-.88V69.48c0-1.49,0-2.62-.08-3.43a14.89,14.89,0,0,0-.35-2.5h.94l.43,3.35h0A4.63,4.63,0,0,1,385,63.44c1.74.06,2.63,1.24,2.69,3.54v8.38h-1.06V67.55c.17-2.19-.44-3.25-1.76-3.19-2.52.35-3.84,2.4-4.05,6.2Z"/></g><g id="_编组_4" data-name=" 编组 4"><path id="_路径_14" data-name=" 路径 14" d="M337.5,10.55h1.2V26.23h-1V12.49h-.08l-3.66,8.75-3.58-8.75-.08.06V26.23h-1.09V10.55h1.12l3.62,8.61Z"/></g><g id="_编组_5" data-name=" 编组 5"><path id="_复合路径_11" data-name=" 复合路径 11" d="M339.16,50.89H338l-1.36-4.76h-5.35l-1.44,4.76h-1.11l5.19-16.34Zm-7.78-5.64h5l-2.5-8Z"/></g><g id="_编组_6" data-name=" 编组 6"><polygon id="_路径_15" data-name=" 路径 15" points="331.3 68.05 331.3 60.39 331.3 59.52 330.25 59.52 330.25 75.37 331.3 75.37 331.3 69.86 331.3 68.91 331.3 68.05"/><path id="_路径_16" data-name=" 路径 16" d="M334,60.38c2.15.06,3.2,1,3.2,3.22s-2.26,3.22-3.93,3.14H331.3v.88h2c3.17,0,4.79-1.36,4.85-3.93s-1.48-4-4.27-4H331.3v.7H334Z"/></g><line class="cls-2" x1="47.77" y1="76.97" x2="47.77" y2="29.02"/><line class="cls-2" x1="30.53" y1="43.05" x2="67.7" y2="43.05"/><path class="cls-2" d="M47.77,29c0-4.91,7.37-8.88,16.48-8.88"/><path class="cls-3" d="M124.71,9.67c19.37.63,33.57,15.47,33.71,33.74.14,18.49-16,34.55-34.24,34.3A34.22,34.22,0,0,1,90.64,43.39C90.68,25,106.16,9.66,124.71,9.67Zm0,11.2c-13.47,0-23.36,9.58-23.33,22.7a22.94,22.94,0,0,0,23.22,23.08,22.68,22.68,0,0,0,23-22.69C147.65,30.61,138.06,20.92,124.68,20.87Z"/><path class="cls-4" d="M124.68,20.87c13.37,0,23,9.73,22.86,23.09a22.68,22.68,0,0,1-23,22.69,22.94,22.94,0,0,1-23.22-23.08C101.32,30.45,111.21,20.82,124.68,20.87Zm-6.31,39.28a5.75,5.75,0,0,0,1.91-.51c6.19-4,12.52-7.88,18.42-12.31,2.92-2.19,2.54-5.83-.29-7.89-5.36-3.89-11.31-7-16.7-10.85-3-2.13-5.29-2.06-7.33.57-2.29,3-1.32,5.78,1.49,7.91a49.81,49.81,0,0,0,5.72,3.68c3.27,1.84,4.29,3.44.16,5.61a38.9,38.9,0,0,0-6.93,4.88c-1.74,1.47-2,3.52-1.14,5.74C114.52,59,116.12,59.77,118.38,60.15Z"/><path class="cls-5" d="M118.38,60.15c-2.26-.38-3.86-1.14-4.68-3.18-.89-2.22-.6-4.26,1.14-5.74a38.9,38.9,0,0,1,6.93-4.88c4.13-2.17,3.11-3.77-.16-5.61a49.81,49.81,0,0,1-5.72-3.68c-2.81-2.13-3.79-4.95-1.49-7.91,2-2.63,4.37-2.7,7.33-.57,5.39,3.87,11.33,7,16.7,10.85,2.83,2.06,3.2,5.7.29,7.89-5.9,4.43-12.23,8.27-18.42,12.31A5.75,5.75,0,0,1,118.38,60.15Z"/><path class="cls-6" d="M186.15,81.77V6.65h74.69V81.77ZM258.24,9.24H188.78V79.18h69.46Z"/><path class="cls-6" d="M190.72,77V11.3H256V77Zm64.41-64.76H191.7V76.05h63.44Z"/><path class="cls-6" d="M212.91,52c-.74-2.31-.36-4.65-.44-7,0-1.17-.36-1.75-1.07-1.79A2.2,2.2,0,0,0,209.47,45a4.76,4.76,0,0,1-1.41,2.56h-.26a12.24,12.24,0,0,1-.4-2.14c0-3.26,0-6.52,0-9.79a30.63,30.63,0,0,0-.24-3.09,1.83,1.83,0,0,0-.36-1,1.33,1.33,0,0,1,0-1.89,20.49,20.49,0,0,0,3.06-6.49c.35-1.34,1.07-2.58.93-4a1.91,1.91,0,0,0-.13-.72.9.9,0,0,1,.34-1.33,2.93,2.93,0,0,1,1.32-.58,1.28,1.28,0,0,1,1,.67c.54,1.49,1.31,2.95.74,4.64-.2.6.19.87.8.74l3.47-.79s.06,0,.07,0c.71-.88,2-1.09,2.47-2.28.08-.21.33-.35.51-.52a4.18,4.18,0,0,1,.46.55,7,7,0,0,0,.57,1.1,2.59,2.59,0,0,1,.06,3.34,44,44,0,0,1-2.5,3.83,16.12,16.12,0,0,1-2,1.89,10.49,10.49,0,0,0-1,1,.6.6,0,0,0,0,.56c.08.12.35.09.54.14l.81.25c-.24.17-.48.35-.73.5-.51.3-1.38.5-1.47.9a3.22,3.22,0,0,0,.57,3,.9.9,0,0,0,.63.25c1,0,1.93-.09,2.94-.14.15.59-.08.82-.67.89-.77.09-1.52.26-2.28.4a.63.63,0,0,0-.15,0c-1.26.58-.74,1.73-.8,2.67,0,.67.32,1,1,1.24,1.12.36,2.13-.19,3.2-.19.21,0,.58-.47.6-.75.09-1.16.08-2.32.09-3.48s0-2.12,0-3.17a1.49,1.49,0,0,0-1.61-1.81c-.42,0-.86.07-1-.62a6.88,6.88,0,0,0,2.39-.74,7.38,7.38,0,0,0,1.31-2.26l.68.54.18-.35c.3.37.59.76.91,1.1a3.78,3.78,0,0,1,.6,5.15,1.5,1.5,0,0,0-.13.63c-.1,1.65-.19,3.29-.28,4.94,0,.12,0,.27,0,.36.7,1.08.32,2.06-.23,3.06a.92.92,0,0,0,.05.84c1.12,1.32,2.32,2.57,3.43,3.89a3.38,3.38,0,0,1,0,4.07c-.72,1-1.41.93-2-.15-.08-.13-.13-.28-.27-.59-.27.33-.58.56-.67.85a15.41,15.41,0,0,0-.84,3.36c-.11,1.81.05,3.64.06,5.46s-.14,3.47,0,5.19c.1,1.57-.85,2.47-1.75,3.45-.1.11-.32.11-.48.16l-.1-.17c.13-.14.26-.27.38-.41.37-.45.45-.92-.1-1.26a1.47,1.47,0,0,1-.69-1.44,13.9,13.9,0,0,0-.06-1.55,1.06,1.06,0,0,0-1.48-1.06l-1.19.26-.17-.22c.15-.14.27-.36.44-.39.57-.12,1.16-.18,1.74-.25a.79.79,0,0,0,.8-.91c0-2.14,0-4.28,0-6.42,0-1.08,0-2.16-.07-3.23a1.07,1.07,0,0,0-.69-.75,8.7,8.7,0,0,0-2.44,0c-.82.13-1.64.22-2.46.41-1.48.35-3,.41-4.51.67-.31.05-.78.42-.81.68a16.14,16.14,0,0,0-.08,3.22c.07.69.4,1.11,1.4,1.06a13.67,13.67,0,0,0,3-.39,4.1,4.1,0,0,0,2.49-1.6,2.28,2.28,0,0,1,.43-.45c.64-.54,1-.44,1.37.31.71,1.61.53,1.86-1.2,1.67a1.06,1.06,0,0,0-.7.06,6.59,6.59,0,0,1-1.27.57c-1.61.35-3.25.62-4.86,1a.93.93,0,0,0-.55.7,24.29,24.29,0,0,0,.11,3.25c.11.94.59,1.26,1.51,1.11a7.44,7.44,0,0,1,1.76-.17,11,11,0,0,0,2.51-.38c.12,0,.28-.15.36-.11a6.76,6.76,0,0,1,.71.52c-.18.16-.33.44-.53.48-.75.15-1.52.25-2.29.33-.56.06-1.14,0-1.7.13a2.62,2.62,0,0,0-2.33,2.58,6.82,6.82,0,0,1-.94,2.4c-.17.29-.79.33-1.2.48l-.39-1.09a.13.13,0,0,1,0-.08c.5-1.65,0-3.29,0-4.94,0-.15,0-.29,0-.67l.49.92c.4-.6.48-1-.14-1.15a.7.7,0,0,1-.38-.53c0-1.22,0-2.43.08-3.65,0-.44.06-.88.1-1.45a1.51,1.51,0,0,1-.3-.61c-.07-1.21-.06-2.43-.12-3.65a12.68,12.68,0,0,0-.21-1.37l-.29,0-2,2.55-.3-.08a9.73,9.73,0,0,1-.26-1.61,18.8,18.8,0,0,1,.19-2.63,2.33,2.33,0,0,1,.49-1.18,1.29,1.29,0,0,0,.24-1.28,14.66,14.66,0,0,1-.23-2.27c0-.7.05-1.4.09-2.09,0-.42.08-.85.12-1.27l.22,0a8.23,8.23,0,0,1,.45,1.33c.25,1.58.45,3.17.69,4.75a1.72,1.72,0,0,0,.31.84,14.73,14.73,0,0,0,2.18,2.29,3.51,3.51,0,0,0,1.9.35A9.32,9.32,0,0,0,212.91,52Zm9.35-7.45-.64.83a3.53,3.53,0,0,1-.47-.84c-.12-.5-.12-1-.21-1.54s-.4-.94-1.06-.85c-2,.28-4,.52-6,.84-.25,0-.66.53-.62.7a13.27,13.27,0,0,0,1,2.82,3.25,3.25,0,0,1,.15,3.49,4.26,4.26,0,0,0-.38,1.25c-.11.5.08.72.63.63A5.3,5.3,0,0,1,216,51.8a1.13,1.13,0,0,0,1.36-1.06,26.46,26.46,0,0,0,.22-3.39c0-.9-.14-1.81-.17-2.71,0-.19.17-.38.27-.57.16.1.4.16.47.31a29,29,0,0,1,1.24,2.73,5.8,5.8,0,0,1-.13,3.44c-.09.37-.15.79.34.87a1.15,1.15,0,0,0,.91-.25,8.27,8.27,0,0,0,1-1.61c.34-.67.61-1.38.93-2.11.94.67.76,2.23,2.11,2.54.12-1.09-.12-2-.73-4C223.55,45,223.1,44.5,222.25,44.56ZM210.57,32.94c.93-.21,1.86-.39,2.78-.63a1.5,1.5,0,0,0,1.21-1.6c0-.67-.12-1.34-.17-2-.08-1,.16-1.2,1.16-1a1.8,1.8,0,0,0,2.09-1.09c.41-.93.81-1.87,1.16-2.83.07-.18-.15-.67-.25-.67a7.67,7.67,0,0,0-1.84.06c-1.06.19-2.09.58-3.15.66a1.69,1.69,0,0,0-1.5.94c-.79,1.3-1.65,2.55-2.5,3.8a3.44,3.44,0,0,1-.54.56,2.08,2.08,0,0,0-.72,2.42A2.33,2.33,0,0,0,210.57,32.94Zm2.89,4.87c-.56,0-.85,0-1.13,0-.51.06-1,.13-1.53.24-1.33.29-1.68.79-1.54,2.14a5.81,5.81,0,0,0,.17,1.21,1.17,1.17,0,0,0,.55.68,4.68,4.68,0,0,0,3.2.14.73.73,0,0,0,.39-.56C213.57,40.41,213.51,39.16,213.46,37.81Zm-.69-.37a5.2,5.2,0,0,0,.73-1.28c.2-.89.51-1.93-.16-2.67s-1.66-.4-2.5-.22a2,2,0,0,0-1.68,2.66,1.4,1.4,0,0,0,2,1.07C212,36.67,212.36,36.79,212.77,37.44Z"/><path class="cls-6" d="M244.15,18.91a6.12,6.12,0,0,1,1.17-.18,16.66,16.66,0,0,1,1.93.19c.72.09.83.54.61,1.24a20.61,20.61,0,0,0-.65,3.14c0,.17.34.56.53.56,1.24,0,2.56.34,3.63-.65a.7.7,0,0,1,.36-.13,2.93,2.93,0,0,1,2.72,2.2c0,.18-.08.49-.2.53-1.19.47-2.39.9-3.77,1.41.17-.46.28-.75.38-1.06.22-.73,0-1.15-.77-1.12-2.06.08-4.12.18-6.17.34-1,.07-1.29.5-1.22,1.34a1.27,1.27,0,0,0,1.44,1.36c1,0,2,0,3,0a1.7,1.7,0,0,0,1.62-.69c.34-.51.89-.22,1.15.06.41.45,1.57.28,1.17,1.46a20.37,20.37,0,0,0-.64,2.94,2.4,2.4,0,0,1-1.9,2.07c-.14,0-.36,0-.44,0-.6-.63-1.35-.38-2.05-.37a16.17,16.17,0,0,0-1.63.09c-.71.08-.89.41-.84,1.37,0,.61.16,1,.94,1,1.08-.09,2.18,0,3.25-.19a3.29,3.29,0,0,0,1.64-.75c.65-.58,1.2-.24,1.8-.07s.45.69.44,1.09q0,1.94-.11,3.88a4.25,4.25,0,0,1-1.44,3.16c-.68.58-1.07.46-1.38-.37-.46-1.2-.46-1.24-1.72-1.18-1,0-2,.2-3,.33-.45.06-.65.31-.64.8a3.42,3.42,0,0,1-.24,1c-.12.39-.22.87-.79.76a.93.93,0,0,1-.75-1.1c0-1,.07-2,.08-3,0-2.95.09-5.9.13-8.85,0-.8.06-1.6.07-2.41a6.59,6.59,0,0,0-.14-1c-.63.23-1.23.42-1.46-.34a1.86,1.86,0,0,1,0-1.07c.28-.82.69-1.59,1-2.41.17-.51.4-.7.9-.47a2.87,2.87,0,0,0,.37.13c1.63.5,2.46-.05,2.34-1.72A23.08,23.08,0,0,0,244.15,18.91Zm-.82,21.3a1.62,1.62,0,0,0,.44.13c1.29-.06,2.58-.06,3.85-.24a1.88,1.88,0,0,0,1.13-2.66A1.13,1.13,0,0,0,248,37c-1,0-2.1,0-3.15,0s-1.25.36-1.33,1.32C243.42,38.91,243.38,39.53,243.33,40.21Zm.46-9.44c-.05,1.24.05,1.36,1.31,1.32.64,0,1.29-.15,1.93-.13a.81.81,0,0,0,.93-.73,5.27,5.27,0,0,0,0-1.45.74.74,0,0,0-.91-.72,16.26,16.26,0,0,1-1.66.21C243.85,29.31,243.85,29.29,243.79,30.77Z"/><path class="cls-6" d="M232.91,26.66a3.27,3.27,0,0,0,5,1.43c.6-.46,1.23-.33,1.7.47a2.48,2.48,0,0,1,.3,1.3c-.06,1.47-.21,2.93-.3,4.4a.88.88,0,0,1-1,.94c-1,0-1.91.09-2.86.19a1.59,1.59,0,0,0-.95.41.68.68,0,0,0,.5,1.17c1.15,0,2.3-.22,3.45-.33a1.66,1.66,0,0,1,.77.06c.12.05.24.45.18.51a1.26,1.26,0,0,1-.69.39c-1.13.12-2.27.19-3.41.27a1,1,0,0,0-1,1.09c0,.68.38.91,1,.94.93,0,1.86.11,2.78.1.27,0,.52-.31.81-.38s.82-.18.94,0a3.48,3.48,0,0,1,.4,1.16,4.18,4.18,0,0,1-1,.27c-1.36.06-2.73,0-4.09.11-.58,0-.89.38-.89,1a5.33,5.33,0,0,1-.3,2c-.15.36-.71.55-1.08.82-.19-.39-.54-.78-.53-1.16.1-2.3.36-4.59.43-6.88.06-2.07,0-4.14-.09-6.21a18.55,18.55,0,0,0-.09-1.86,2.4,2.4,0,0,0-.36-.72,5.12,5.12,0,0,0-.64.47c-1.13,1.12-2.25,2.26-3.37,3.39l-.32-.22a14.66,14.66,0,0,1,.75-1.27,22.25,22.25,0,0,0,1.55-2c1.25-2.23,2.46-4.49,3.61-6.78a3.85,3.85,0,0,0,.5-3.13c0-.12.24-.51.42-.54a3.92,3.92,0,0,1,2.76,1,.63.63,0,0,1,0,.61c-.5.61,0,.82.39,1a18.69,18.69,0,0,1,1.81.85,1.52,1.52,0,0,1-.12,2.65c-.45.24-.82.07-1.09-.4-.39-.69-.84-1.34-1.28-2-.31-.45-.66-.38-.93,0-.65,1-1.28,1.94-1.88,2.94-.29.49-.1.84.48.79.84-.07,1.67-.27,2.51-.35a2.46,2.46,0,0,1,1.16.14.81.81,0,0,1,.35.7c0,.17-.41.39-.64.4-1.19.05-2.38,0-3.57.06C234.33,26.51,233.68,26.59,232.91,26.66Zm3,3.22a2.93,2.93,0,0,1-.53,0c-.47-.1-.78.07-.82.55s-.23,1.18.44,1.3a3.79,3.79,0,0,0,1.93-.19c.27-.1.48-.76.45-1.14,0-.22-.58-.42-.93-.55C236.31,29.77,236.08,29.87,235.94,29.88Zm-.52,4.56.14-.16a4.58,4.58,0,0,0,1.29-.18,1.2,1.2,0,0,0,.52-.8c0-.12-.39-.45-.62-.47a7.73,7.73,0,0,0-1.29.16c-.45,0-.91.16-.78.7C234.75,34,235.16,34.19,235.42,34.44Z"/><path class="cls-6" d="M194.9,50.28c-.16-.89,1-.76,1.4-1.17l1.65.45-.57-1.3a3,3,0,0,1,1.52-1.41,3.92,3.92,0,0,0,1.77-1.62,15.05,15.05,0,0,1,2.94-3.47c.14-.14.46-.11.69-.15,0,.22.12.5,0,.63a4.51,4.51,0,0,1-1.25,1.43,1.77,1.77,0,0,0-1,1.85c.06,2.19.2,4.37.23,6.56q.08,5.39.05,10.78a21.82,21.82,0,0,1-.33,3.6,11.46,11.46,0,0,1-2.15,4.6,1.77,1.77,0,0,1-.6.49c-.8.44-1.18.2-1.21-.7a3.43,3.43,0,0,0-1.22-2.95c-.19-.14-.38-.55-.3-.7a1.28,1.28,0,0,1,.75-.67,2,2,0,0,0,1.83-1.83c.31-1.86.53-3.73.76-5.6.14-1.15.23-2.31.34-3.46a1.47,1.47,0,0,0,0-.3c-.16-1.38-.32-2.76-.5-4.13a7.94,7.94,0,0,0-.29-1.36c-.13-.41-.4-.44-.69-.12-.15.18-.29.36-.43.55l-2.44,3.36c-1.24,1.72-1.59,1.7-2.46-.14a3.41,3.41,0,0,1-.26-.56c-.14-.56-.9-1.12-.06-1.68C193.63,50.92,194.18,50.67,194.9,50.28Z"/><path class="cls-6" d="M202.27,32.53c.93.17,1.5.08,1.89-.62a.69.69,0,0,1,.65-.16,2,2,0,0,1,.46,2.39L205,33.7c-.73.29-1.4.54-2.05.84-.23.11-.53.3-.59.51a9,9,0,0,0-.35,2c-.06,1.37,0,2.74-.06,4.11a1.6,1.6,0,0,1-.41,1.1,3.46,3.46,0,0,1-1.28.35c0-.39-.11-.77-.13-1.16,0-1.19-.08-2.38-.11-3.56q0-1.09,0-2.17c0-.55-.26-.79-.83-.76a9.74,9.74,0,0,0-3.5.88,1.06,1.06,0,0,1-1.66-.94,2.83,2.83,0,0,1,0-1c0-.19.3-.47.46-.48,1.3,0,2.6,0,3.9,0,.93.06,1.17,0,1.33-.88a16.25,16.25,0,0,0,.08-2.43c0-.08,0-.15,0-.23-.12-2.3-.23-4.59-.38-6.89a7.52,7.52,0,0,0-.38-1.45.68.68,0,0,0-.07-.14c-1-1.71-.59-2.36,1.27-2.48l.89.61v.34a5.84,5.84,0,0,1,1.12.62,7.21,7.21,0,0,1,1.16,1.33,2.48,2.48,0,0,1,0,2.56,11,11,0,0,0-1,3.31A46.74,46.74,0,0,0,202.27,32.53Z"/><path class="cls-6" d="M251.55,64.1c.16.9.28,1.82.49,2.71a4.65,4.65,0,0,0,.55,1.16c.45.79.14,1.38-.77,1.44l-6.66.39c-.62,0-1.44-.8-1.54-1.59a11.51,11.51,0,0,1-.07-1.24c0-3.16-.08-6.31-.12-9.47,0-1.86,0-3.73-.13-5.59a5.28,5.28,0,0,0-.6-1.51,1.48,1.48,0,0,1,2.06-.51,6.92,6.92,0,0,1,1.62.84.82.82,0,0,1,0,1.36,3.76,3.76,0,0,0-1,3.07c-.11,2.95-.1,5.9-.09,8.85a18,18,0,0,0,.25,2.86c0,.26.46.67.69.66a37.86,37.86,0,0,0,4.05-.38c.21,0,.4-.56.51-.89.25-.72.45-1.47.67-2.2Z"/><path class="cls-6" d="M231.06,70.46c.57-.44,1.17-.84,1.69-1.33,1.08-1,2.17-2,3.14-3.09a8.31,8.31,0,0,0,1.8-4.07,30.82,30.82,0,0,0,.56-8.55c-.07-.79-.08-1.56-.92-2a.47.47,0,0,1-.12-.45,1.62,1.62,0,0,1,2.33-.56,12.33,12.33,0,0,1,1.14.77c.17.15.35.54.27.68-.63,1.1-.4,2.32-.56,3.49-.27,2-.3,4.09-.75,6.06-.86,3.71-3.53,6.1-6.53,8.17-.47.32-1,.6-1.46.88a2.63,2.63,0,0,1-.49.17Z"/><polygon class="cls-7" points="408.77 51.71 437.52 59.99 461.14 39.96 443.37 61.67 485 73.66 494.16 9.02 408.77 51.71"/><polygon class="cls-7" points="437.27 69.88 447.3 63.12 442.99 78.18 437.27 69.88"/></svg>