<?xml version="1.0" encoding="utf-8"?>
<!-- Generator: Adobe Illustrator 19.0.0, SVG Export Plug-In . SVG Version: 6.00 Build 0)  -->
<svg version="1.1" id="图层_1" xmlns="http://www.w3.org/2000/svg" xmlns:xlink="http://www.w3.org/1999/xlink" x="0px" y="0px"
	 viewBox="0 0 800 800" style="enable-background:new 0 0 800 800;" xml:space="preserve">
<style type="text/css">
	.st0{fill:#B5B5B6;}
</style>
<g id="XMLID_63_">
	<path id="XMLID_64_" class="st0" d="M371.3,246.4h6.1v80.5h-5.2v-70h-0.4l-18.8,44.6l-18.4-44.6l-0.4,0.4v69.6h-5.2v-80.5h5.7
		l18.4,44.2L371.3,246.4z"/>
	<path id="XMLID_66_" class="st0" d="M427.7,267.9h5.2v28.9c0,9.9,0.7,20,2.2,30.2h-4.8l-2.2-16.6h-0.4c-3.8,10.8-10.8,16.5-21,17.1
		c-8.8-0.3-13.3-6.3-13.6-17.9v-41.6h5.2v38.9c0,11.7,3.1,17.4,9.2,17.1c12.8-2,19.5-12.8,20.1-32.4V267.9z"/>
	<path id="XMLID_68_" class="st0" d="M481.5,277c-5.5-4.1-10.9-6.1-16.2-6.1c-7.3,0.9-11.2,4.5-11.8,10.9c0,5,4.4,8.9,13.1,11.8
		c12.8,4.1,19.1,10.4,18.8,18.8c-0.6,9.6-6.6,14.6-17.9,14.9c-7.9-0.3-15.3-3.2-22.3-8.8l3.1-4.4c6.7,6.1,13.3,9.3,19.7,9.6
		c7.9-0.6,12-4.2,12.2-10.9c0.6-6.1-4.1-10.9-14-14.4c-12.2-3.8-18.2-9.5-17.9-17.1c0.9-9,6.7-14,17.5-14.9c6.1,0,12.1,2,17.9,6.1
		L481.5,277z"/>
	<path id="XMLID_70_" class="st0" d="M538.4,323c-8.5,2.9-15.6,4.4-21.4,4.4c-14.9-0.3-22.8-10.2-23.6-29.8
		c0.9-20.1,8.9-30.5,24.1-31.1c14.3,0.9,21.6,11.4,21.9,31.5h-40.7c0.6,17.2,6.8,25.8,18.8,25.8c5.8,0,12.1-2,18.8-6.1L538.4,323z
		 M534,293.7c-0.9-14-6.6-21.6-17.1-22.8c-11.4,1.2-17.5,8.8-18.4,22.8H534z"/>
	<path id="XMLID_73_" class="st0" d="M586.9,267.9h5.2v28.9c0,9.9,0.7,20,2.2,30.2h-4.8l-2.2-16.6h-0.4c-3.8,10.8-10.8,16.5-21,17.1
		c-8.8-0.3-13.3-6.3-13.6-17.9v-41.6h5.2v38.9c0,11.7,3.1,17.4,9.2,17.1c12.8-2,19.5-12.8,20.1-32.4V267.9z"/>
	<path id="XMLID_75_" class="st0" d="M612.3,285.8c0-7.9-0.6-14.3-1.8-19.2h5.2l1.3,7.4c4.1-5,8.8-7.4,14-7.4c4.4,0,7.4,2.3,9.2,7
		c3.5-4.7,7.6-7,12.2-7c7.3,0.3,11.1,4.4,11.4,12.2v48.1h-5.2v-47.7c0-5.5-2.3-8.3-7-8.3c-4.1,0-7.7,2.5-10.9,7.4v48.6h-5.2v-45.5
		c0.3-7-1.8-10.5-6.1-10.5c-5,0.3-8.9,3.2-11.8,8.8v47.2h-5.2V285.8z"/>
</g>
<g id="XMLID_45_">
	<path id="XMLID_46_" class="st0" d="M279.9,458.6c4.1,4.1,8.9,6.3,14.4,6.6c9.9-0.6,15-6.9,15.3-18.8v-7.4
		c-4.7,4.7-10.2,7.2-16.6,7.4c-12.5-0.9-19.4-9.6-20.6-26.2c0.6-18.7,7.9-28.3,21.9-28.9c5-0.3,10.3,1.9,16.2,6.6l1.3-6.6h5.2
		c-1.5,5.8-2.2,14.9-2.2,27.1c0,1.8,0,3.1,0,3.9v24.9c-0.6,13.7-7.7,21.1-21.4,22.3c-6.4-0.3-12.1-2.9-17.1-7.9L279.9,458.6z
		 M309.7,404.3c-4.1-5.8-9.3-8.8-15.8-8.8c-10.2,0.6-15.6,8.3-16.2,23.2c0.3,14,5.5,21.7,15.8,23.2c6.4-0.3,11.8-3.3,16.2-9.2V404.3
		z"/>
	<path id="XMLID_49_" class="st0" d="M380.1,451.6H374l-7-24.5h-27.6l-7.4,24.5h-5.7l26.7-84L380.1,451.6z M340.3,422.7h25.4
		L353,382L340.3,422.7z"/>
	<path id="XMLID_52_" class="st0" d="M407.7,372.8h-17.1v-4.4h22.8v83.1h-5.7V372.8z"/>
	<path id="XMLID_54_" class="st0" d="M448.3,372.8h-17.1v-4.4H454v83.1h-5.7V372.8z"/>
	<path id="XMLID_56_" class="st0" d="M512.2,447.6c-8.5,2.9-15.6,4.4-21.4,4.4c-14.9-0.3-22.8-10.2-23.6-29.8
		c0.9-20.1,8.9-30.5,24.1-31.1c14.3,0.9,21.6,11.4,21.9,31.5h-40.7c0.6,17.2,6.8,25.8,18.8,25.8c5.8,0,12.1-2,18.8-6.1L512.2,447.6z
		 M507.8,418.3c-0.9-14-6.6-21.6-17.1-22.8c-11.4,1.2-17.5,8.8-18.4,22.8H507.8z"/>
	<path id="XMLID_59_" class="st0" d="M533.7,451.6h-5.2v-41.1l-2.2-18.8h4.8l2.2,16.6c5.5-11.4,12.2-17.1,20.1-17.1
		c8.2,0.3,12.4,6.3,12.7,17.9h-5.2c0.3-9-2.3-13.6-7.9-13.6c-12.2,3.8-18.7,14.4-19.2,31.9V451.6z"/>
	<path id="XMLID_61_" class="st0" d="M623.8,392.5l-21.9,56c-0.3,0.6-0.6,1.3-0.9,2.2c-5.2,12.8-11.2,19.1-17.9,18.8
		c-6.4-0.3-10.9-4.1-13.6-11.4l4.4-2.2c2.3,6.1,5.4,9.2,9.2,9.2c4.1,0,7.6-3.7,10.5-10.9l4.8-9.6l-19.2-52.1h5.7L601,438l16.6-45.5
		H623.8z"/>
</g>
<g id="XMLID_17_">
	<path id="XMLID_18_" class="st0" d="M167.8,572.3c-8.5,2.9-15.6,4.4-21.4,4.4c-14.9-0.3-22.8-10.2-23.6-29.8
		c0.9-20.1,8.9-30.5,24.1-31.1c14.3,0.9,21.6,11.4,21.9,31.5H128c0.6,17.2,6.8,25.8,18.8,25.8c5.8,0,12.1-2,18.8-6.1L167.8,572.3z
		 M163.4,543c-0.9-14-6.6-21.6-17.1-22.8C135,521.4,128.8,529,128,543H163.4z"/>
	<path id="XMLID_21_" class="st0" d="M204.5,544.3l22.8,31.9h-7l-18.8-28.4l-18.8,28.4h-7l23.2-31.9L180,517.1h6.1l15.3,23.2
		l14.9-23.2h6.1L204.5,544.3z"/>
	<path id="XMLID_23_" class="st0" d="M236.5,493.1h5.2v36.8h0.4c4.7-9,11.2-13.7,19.7-14c9,1.2,13.7,6.9,14,17.1v43.3h-5.2V539
		c0-12.5-3.2-18.8-9.6-18.8c-11.4,1.8-17.8,10.5-19.2,26.2v29.8h-5.2V493.1z"/>
	<path id="XMLID_25_" class="st0" d="M309.5,521.5h-17.1v-4.4h22.3v59.1h-5.2V521.5z M317.8,499.6c-0.3,3.8-2.2,5.8-5.7,6.1
		c-3.8-0.3-5.8-2.3-6.1-6.1c0.3-3.5,2.3-5.4,6.1-5.7C315.7,494.3,317.6,496.1,317.8,499.6z"/>
	<path id="XMLID_28_" class="st0" d="M334.9,576.2v-80.5h19.7c12.8,0.6,19.5,7.2,20.1,19.7c-0.3,8.5-4.7,14.4-13.1,17.9
		c10.8,3.5,16.3,10.7,16.6,21.4c-0.9,13.7-7.6,20.9-20.1,21.4H334.9z M348.5,532c13.7-0.3,20.7-6,21-17.1
		c0.3-9.9-5.4-14.9-17.1-14.9h-12.2V532H348.5z M357.2,571.8c9.9-1.2,15.2-6.7,15.8-16.6c-1.2-11.7-7.4-17.9-18.8-18.8h-14v35.4
		H357.2z"/>
	<path id="XMLID_32_" class="st0" d="M409.7,521.5h-17.1v-4.4H415v59.1h-5.2V521.5z M418,499.6c-0.3,3.8-2.2,5.8-5.7,6.1
		c-3.8-0.3-5.8-2.3-6.1-6.1c0.3-3.5,2.3-5.4,6.1-5.7C415.8,494.3,417.7,496.1,418,499.6z"/>
	<path id="XMLID_35_" class="st0" d="M469.7,521.5h-21.4v40.2c0.3,7.6,3.3,11.4,9.2,11.4c5.8,0,10.5-3.5,14-10.5l4.8,0.9
		c-4.1,8.5-10.4,12.8-18.8,13.1c-9.6,0.3-14.4-5.7-14.4-17.9v-37.2h-13.6v-4.4H443v-19.3h5.2v19.3h21.4V521.5z"/>
	<path id="XMLID_37_" class="st0" d="M505.1,521.5H488v-4.4h22.3v59.1h-5.2V521.5z M513.4,499.6c-0.3,3.8-2.2,5.8-5.7,6.1
		c-3.8-0.3-5.8-2.3-6.1-6.1c0.3-3.5,2.3-5.4,6.1-5.7C511.2,494.3,513.1,496.1,513.4,499.6z"/>
	<path id="XMLID_40_" class="st0" d="M527,546.5c0.3-19.5,7.9-29.8,22.8-30.6c14.9,1.2,22.5,11.4,22.8,30.6
		c-0.3,19.5-7.9,29.6-22.8,30.2C534.8,576.1,527.3,566,527,546.5z M567.2,546.5c-0.3-17.2-6.1-26-17.5-26.2
		c-11.4,0.3-17.2,9-17.5,26.2c0.3,17.5,6.1,26.4,17.5,26.7C561.1,572.9,566.9,564,567.2,546.5z"/>
	<path id="XMLID_43_" class="st0" d="M591.7,576.2h-5.2v-29.8c0-7.6-0.2-13.4-0.4-17.5c-0.3-4.7-0.9-8.9-1.8-12.7h4.8l2.2,17.1h0.4
		c3.8-10.8,10.8-16.6,21-17.5c8.8,0.3,13.3,6.3,13.6,17.9v42.4H621v-39.8c0.6-11.1-2.5-16.5-9.2-16.2c-12.8,1.8-19.5,12.2-20.1,31.5
		V576.2z"/>
</g>
<g id="XMLID_14_">
	<path id="XMLID_15_" d="M371.3,246.4h6.1v80.5h-5.2v-70h-0.4l-18.8,44.6l-18.4-44.6l-0.4,0.4v69.6h-5.2v-80.5h5.7l18.4,44.2
		L371.3,246.4z"/>
</g>
<g id="XMLID_6_">
	<path id="XMLID_11_" d="M380,451.6h-6.1l-7-24.5h-27.6l-7.4,24.5h-5.7l26.7-84L380,451.6z M340.2,422.7h25.4L352.9,382L340.2,422.7
		z"/>
</g>
<g id="XMLID_1_">
	<polygon id="XMLID_2_" points="340.2,539 340.2,500.1 340.2,495.7 334.9,495.7 334.9,576.2 340.2,576.2 340.2,548.2 340.2,543.4 	
		"/>
	<path id="XMLID_77_" d="M353.4,500.1c10.8,0.3,16.1,5.2,16.1,16.2c0,10.6-11.4,16.2-19.8,15.8h-9.6l0,4.4h10.1
		c16.3-0.2,24.6-7,24.9-20.2c-0.3-13.4-7.6-20.3-21.9-20.5h-13.1v4.4H353.4z"/>
</g>
</svg>
